# xmcd
#
# Track frame offsets:
#	150
#	17242
#	34932
#	51297
#	71465
#
# Disc length: 1363 seconds
#
# Revision: 1
# Processed by: cddbd v1.5PL3 Copyright (c) Steve Scherf et al.
# Submitted via: CDex 1.50Beta5
#
DISCID=3f055105
DTITLE=Breath Mark - "DYNAMO"
DYEAR=1900
DGENRE=Pop
TTITLE0=TatooOnThe Shoulder
TTITLE1=Six Ways Of Lies
TTITLE2=Creator Has Number
TTITLE3=ろうの飾り
TTITLE4=Dry Sight
EXTD=
EXTT0=
EXTT1=
EXTT2=
EXTT3=
EXTT4=
PLAYORDER=
